<svg width="69" height="69" viewBox="0 0 69 69" fill="none" xmlns="http://www.w3.org/2000/svg">
<path d="M55 39.7586C55 53.3032 45.6774 64 34.5 64C23.3226 64 14 53.3032 14 39.7586C14 36.5039 15.2637 32.6926 17.2527 28.7397C19.2325 24.8051 21.8832 20.8225 24.5512 17.25C27.2168 13.6808 29.8848 10.5407 31.8874 8.29198C32.8882 7.16819 33.7217 6.26842 34.3039 5.65057C34.3729 5.57743 34.4383 5.50824 34.5 5.44311C34.5617 5.50824 34.6271 5.57743 34.6961 5.65057C35.2783 6.26842 36.1118 7.16819 37.1126 8.29198C39.1152 10.5407 41.7832 13.6808 44.4488 17.25C47.1168 20.8225 49.7675 24.8051 51.7473 28.7397C53.7363 32.6926 55 36.5039 55 39.7586Z" fill="#007AFF" stroke="#0060C8" stroke-width="2"/>
</svg>
