<svg width="69" height="69" viewBox="0 0 69 69" fill="none" xmlns="http://www.w3.org/2000/svg">
<mask id="path-1-inside-1_107_1762" fill="white">
<path fill-rule="evenodd" clip-rule="evenodd" d="M48.7855 4.28561C48.3938 3.89626 47.769 3.90624 47.3899 4.3079L45.9887 5.79262C45.6097 6.19428 45.6199 6.83552 46.0116 7.22487L47.1848 8.3911L42.5902 13.1066C41.8194 13.8977 41.8194 15.1803 42.5902 15.9715L52.2689 25.9047C53.0398 26.6958 54.2895 26.6958 55.0604 25.9047L59.8542 20.9848L60.9725 22.0965C61.3642 22.4858 61.989 22.4758 62.3681 22.0742L63.7692 20.5895C64.1483 20.1878 64.1381 19.5465 63.7464 19.1572L48.7855 4.28561Z"/>
</mask>
<path fill-rule="evenodd" clip-rule="evenodd" d="M48.7855 4.28561C48.3938 3.89626 47.769 3.90624 47.3899 4.3079L45.9887 5.79262C45.6097 6.19428 45.6199 6.83552 46.0116 7.22487L47.1848 8.3911L42.5902 13.1066C41.8194 13.8977 41.8194 15.1803 42.5902 15.9715L52.2689 25.9047C53.0398 26.6958 54.2895 26.6958 55.0604 25.9047L59.8542 20.9848L60.9725 22.0965C61.3642 22.4858 61.989 22.4758 62.3681 22.0742L63.7692 20.5895C64.1483 20.1878 64.1381 19.5465 63.7464 19.1572L48.7855 4.28561Z" fill="#F5F5F5"/>
<path d="M47.3899 4.3079L48.8445 5.6806L48.8445 5.6806L47.3899 4.3079ZM48.7855 4.28561L50.1955 2.86717L50.1955 2.86717L48.7855 4.28561ZM45.9887 5.79262L47.4433 7.16532L47.4433 7.16532L45.9887 5.79262ZM46.0116 7.22487L44.6016 8.64331L44.6016 8.64331L46.0116 7.22487ZM47.1848 8.3911L48.6173 9.78684L49.9992 8.36863L48.5948 6.97266L47.1848 8.3911ZM42.5902 13.1066L44.0227 14.5023L44.0227 14.5023L42.5902 13.1066ZM42.5902 15.9715L44.0227 14.5757L44.0227 14.5757L42.5902 15.9715ZM52.2689 25.9047L50.8365 27.3004L50.8365 27.3004L52.2689 25.9047ZM55.0604 25.9047L56.4928 27.3004L56.4928 27.3004L55.0604 25.9047ZM59.8542 20.9848L61.2642 19.5664L59.8315 18.1423L58.4217 19.5891L59.8542 20.9848ZM60.9725 22.0965L62.3825 20.678L62.3825 20.678L60.9725 22.0965ZM62.3681 22.0742L60.9135 20.7015L60.9135 20.7015L62.3681 22.0742ZM63.7692 20.5895L65.2238 21.9622L65.2238 21.9622L63.7692 20.5895ZM63.7464 19.1572L62.3364 20.5756L62.3364 20.5756L63.7464 19.1572ZM48.8445 5.6806C48.4514 6.09703 47.7816 6.10773 47.3755 5.70405L50.1955 2.86717C49.006 1.68478 47.0865 1.71544 45.9354 2.93519L48.8445 5.6806ZM47.4433 7.16532L48.8445 5.6806L45.9354 2.93519L44.5342 4.41991L47.4433 7.16532ZM47.4216 5.80643C47.7989 6.18154 47.8085 6.77836 47.4433 7.16532L44.5342 4.41991C43.4109 5.61019 43.4409 7.4895 44.6016 8.64331L47.4216 5.80643ZM48.5948 6.97266L47.4216 5.80643L44.6016 8.64331L45.7749 9.80954L48.5948 6.97266ZM44.0227 14.5023L48.6173 9.78684L45.7524 6.99536L41.1578 11.7108L44.0227 14.5023ZM44.0227 14.5757C44.0199 14.5729 44.0184 14.5706 44.0167 14.5664C44.0145 14.5607 44.0121 14.5512 44.0121 14.539C44.0121 14.5268 44.0145 14.5173 44.0167 14.5117C44.0184 14.5074 44.0199 14.5051 44.0227 14.5023L41.1578 11.7108C39.6302 13.2786 39.6302 15.7994 41.1578 17.3672L44.0227 14.5757ZM53.7014 24.509L44.0227 14.5757L41.1578 17.3672L50.8365 27.3004L53.7014 24.509ZM53.6279 24.509C53.6254 24.5116 53.6291 24.5073 53.639 24.5032C53.6475 24.4997 53.6563 24.498 53.6647 24.498C53.673 24.498 53.6818 24.4997 53.6903 24.5032C53.7002 24.5073 53.7039 24.5116 53.7014 24.509L50.8365 27.3004C52.3923 28.8972 54.937 28.8972 56.4928 27.3004L53.6279 24.509ZM58.4217 19.5891L53.6279 24.509L56.4928 27.3004L61.2866 22.3806L58.4217 19.5891ZM62.3825 20.678L61.2642 19.5664L58.4442 22.4033L59.5625 23.5149L62.3825 20.678ZM60.9135 20.7015C61.3065 20.285 61.9764 20.2743 62.3825 20.678L59.5625 23.5149C60.752 24.6973 62.6715 24.6666 63.8226 23.4469L60.9135 20.7015ZM62.3147 19.2167L60.9135 20.7015L63.8226 23.4469L65.2238 21.9622L62.3147 19.2167ZM62.3364 20.5756C61.959 20.2005 61.9495 19.6037 62.3147 19.2168L65.2238 21.9622C66.3471 20.7719 66.3171 18.8926 65.1564 17.7388L62.3364 20.5756ZM47.3755 5.70405L62.3364 20.5756L65.1564 17.7388L50.1955 2.86717L47.3755 5.70405Z" fill="#E3E3E3" mask="url(#path-1-inside-1_107_1762)"/>
<path fill-rule="evenodd" clip-rule="evenodd" d="M38.0726 15.739L52.0783 30.1131L26.1972 56.6749L26.0237 56.4969L12.1644 58.098L5.68053 64.7524C5.29608 65.147 4.67278 65.147 4.28833 64.7524C3.90389 64.3579 3.90389 63.7182 4.28833 63.3236L10.8257 56.6143L12.3749 42.4891L12.1915 42.3008L38.0726 15.739Z" fill="#007AFF"/>
<path d="M36.7704 10.364C37.5587 9.59024 38.8367 9.59024 39.6249 10.364L57.3724 27.7864C58.1607 28.5602 58.1607 29.8148 57.3724 30.5886L55.3321 32.5916C54.5439 33.3653 53.2659 33.3653 52.4777 32.5916L34.7301 15.1692C33.9419 14.3954 33.9419 13.1408 34.7301 12.367L36.7704 10.364Z" fill="#007AFF"/>
<path d="M12.9456 42.2783C17.8973 45.1017 22.8491 49.0543 26.1503 55.8303" stroke="#007AFF" stroke-opacity="0.35" stroke-width="0.5" stroke-linecap="round" stroke-linejoin="round"/>
<path d="M11.295 56.395C11.7077 56.6303 12.1203 56.9597 12.3954 57.5244" stroke="#007AFF" stroke-opacity="0.35" stroke-width="0.5" stroke-linecap="round" stroke-linejoin="round"/>
<rect width="9.97432" height="2.22992" transform="matrix(0.69787 0.716224 -0.69787 0.716224 38.6812 27.2124)" fill="#004591" fill-opacity="0.5"/>
<rect width="9.97432" height="2.22992" transform="matrix(0.69787 0.716224 -0.69787 0.716224 32.4563 33.6008)" fill="#004591" fill-opacity="0.5"/>
<rect width="9.97432" height="2.22992" transform="matrix(0.69787 0.716224 -0.69787 0.716224 26.2316 39.9895)" fill="#004591" fill-opacity="0.5"/>
<rect width="5.81835" height="2.22992" transform="matrix(0.69787 0.716224 -0.69787 0.716224 38.469 33.3835)" fill="#004591" fill-opacity="0.5"/>
<rect width="5.81835" height="2.22992" transform="matrix(0.69787 0.716224 -0.69787 0.716224 32.2443 39.7717)" fill="#004591" fill-opacity="0.5"/>
</svg>
